#N canvas 1708 578 791 691 10;
#X obj 137 -24 sendOSC;
#X obj 28 -100 loadbang;
#X obj 137 -1 bng 15 250 50 0 empty empty empty 17 7 0 10 -262144 -1
-1;
#X obj 176 -1 bng 15 250 50 0 empty empty empty 17 7 0 10 -262144 -1
-1;
#X msg 28 -76 connect localhost 12000;
#X msg 27 -54 disconnect;
#X msg 228 -90 send /Listener 0 0 0 0;
#X msg 412 -114 send /Object 0 105 0 105;
#X msg 414 -90 send /Object 0 0 0 0;
#X msg 226 -115 send /Listener 0 100 5 100;
#X msg 414 -41 send /Object 1 0 0 0;
#X msg 413 -65 send /Object 1 -105 0 105;
#X msg 416 8 send /Object 2 0 0 0;
#X msg 415 -17 send /Object 2 -105 0 -105;
#X msg 416 33 send /Object 3 -105 0 -105;
#X msg 417 58 send /Object 3 0 0 0;
#X msg 276 100 send /Play 1 1 1 1;
#X msg 372 191 send /Play 0 0 0 0;
#X msg 469 123 send /Gain 0 1;
#X msg 475 147 send /Gain 0 0;
#X connect 0 0 2 0;
#X connect 0 1 3 0;
#X connect 1 0 4 0;
#X connect 4 0 0 0;
#X connect 5 0 0 0;
#X connect 6 0 0 0;
#X connect 7 0 0 0;
#X connect 8 0 0 0;
#X connect 9 0 0 0;
#X connect 10 0 0 0;
#X connect 11 0 0 0;
#X connect 12 0 0 0;
#X connect 13 0 0 0;
#X connect 14 0 0 0;
#X connect 15 0 0 0;
#X connect 16 0 0 0;
#X connect 17 0 0 0;
#X connect 18 0 0 0;
#X connect 19 0 0 0;
